<?xml version="1.0" encoding="UTF-8" standalone="no"?>
<!-- Created with Inkscape (http://www.inkscape.org/) -->
<svg xmlns:inkscape="http://www.inkscape.org/namespaces/inkscape" xmlns:rdf="http://www.w3.org/1999/02/22-rdf-syntax-ns#" xmlns="http://www.w3.org/2000/svg" xmlns:xlink="http://www.w3.org/1999/xlink" xmlns:ns1="http://sozi.baierouge.fr" xmlns:cc="http://creativecommons.org/ns#" xmlns:sodipodi="http://sodipodi.sourceforge.net/DTD/sodipodi-0.dtd" xmlns:dc="http://purl.org/dc/elements/1.1/" id="svg2" xml:space="preserve" viewBox="0 0 89.463 62.1" version="1.1" inkscape:version="0.91 r13725">
  <defs id="defs6">
    <clipPath id="clipPath18">
      <path id="path20" d="m0-0.31968h72v18h-72v-18z" inkscape:connector-curvature="0"/>
    </clipPath>
    <mask id="mask22">
      <g id="g24">
        <g id="g26" clip-path="url(#clipPath18)">
          <path id="path28" style="fill:#000000;fill-opacity:.14060" d="m0-0.31968h72v18h-72v-18z" inkscape:connector-curvature="0"/>
        </g>
      </g>
    </mask>
    <clipPath id="clipPath34">
      <path id="path36" d="m0-0.31968h72v18h-72v-18z" inkscape:connector-curvature="0"/>
    </clipPath>
    <clipPath id="clipPath38">
      <path id="path40" d="m0 0h72v18h-72v-18z" inkscape:connector-curvature="0"/>
    </clipPath>
    <linearGradient id="linearGradient76" y2="-16.47" gradientUnits="userSpaceOnUse" x2="27.17" gradientTransform="matrix(.08 -.796 -.796 -.08 .00016194 49.68)" y1="-16.47" x1="22.17">
      <stop id="stop78" style="stop-color:#9ba1a6" offset="0"/>
      <stop id="stop80" style="stop-color:#b7b8b8" offset="1"/>
    </linearGradient>
    <linearGradient id="linearGradient94" y2="-17.423" gradientUnits="userSpaceOnUse" x2="33.029" gradientTransform="matrix(-.0832 -.79568 -.79568 .0832 -.00070662 49.68)" y1="-17.423" x1="29.183">
      <stop id="stop96" style="stop-color:#9ba1a6" offset="0"/>
      <stop id="stop98" style="stop-color:#b7b8b8" offset="1"/>
    </linearGradient>
    <linearGradient id="linearGradient112" y2="-42.684" gradientUnits="userSpaceOnUse" x2="38.85" gradientTransform="matrix(.08 -.796 -.796 -.08 .00016194 49.68)" y1="-42.684" x1="33.85">
      <stop id="stop114" style="stop-color:#9ba1a6" offset="0"/>
      <stop id="stop116" style="stop-color:#b7b8b8" offset="1"/>
    </linearGradient>
    <linearGradient id="linearGradient130" y2="-33.534" gradientUnits="userSpaceOnUse" x2="59.231" gradientTransform="matrix(.22376 -.76808 -.76808 -.22376 .00026102 49.68)" y1="-33.534" x1="54.468">
      <stop id="stop132" style="stop-color:#9ba1a6" offset="0"/>
      <stop id="stop134" style="stop-color:#b7b8b8" offset="1"/>
    </linearGradient>
    <linearGradient id="linearGradient148" y2="-36.851" gradientUnits="userSpaceOnUse" x2="43.486" gradientTransform="matrix(.08064 -.79592 -.79592 -.08064 .00021630 49.68)" y1="-36.851" x1="39.768">
      <stop id="stop150" style="stop-color:#9ba1a6" offset="0"/>
      <stop id="stop152" style="stop-color:#b7b8b8" offset="1"/>
    </linearGradient>
    <linearGradient id="linearGradient166" y2="-28.451" gradientUnits="userSpaceOnUse" x2="36.711" gradientTransform="matrix(-.03 -.79944 -.79944 .03 -.00049368 49.68)" y1="-28.451" x1="32.708">
      <stop id="stop168" style="stop-color:#9ba1a6" offset="0"/>
      <stop id="stop170" style="stop-color:#b7b8b8" offset="1"/>
    </linearGradient>
    <linearGradient id="linearGradient184" y2="-69.117" gradientUnits="userSpaceOnUse" x2="20.419" gradientTransform="matrix(-.23976 -.7632 -.7632 .23976 .00014372 49.681)" y1="-69.117" x1="15.414">
      <stop id="stop186" style="stop-color:#9ba1a6" offset="0"/>
      <stop id="stop188" style="stop-color:#b7b8b8" offset="1"/>
    </linearGradient>
    <linearGradient id="linearGradient202" y2="-52.191" gradientUnits="userSpaceOnUse" x2="53.662" gradientTransform="matrix(.07808 -.79616 -.79616 -.07808 -.00036705 49.68)" y1="-52.191" x1="49.818">
      <stop id="stop204" style="stop-color:#9ba1a6" offset="0"/>
      <stop id="stop206" style="stop-color:#b7b8b8" offset="1"/>
    </linearGradient>
    <linearGradient id="linearGradient220" y2="-38.26" gradientUnits="userSpaceOnUse" x2="19.472" gradientTransform="matrix(-.14016 -.7876 -.7876 .14016 -.00029235 49.68)" y1="-38.26" x1="15.461">
      <stop id="stop222" style="stop-color:#9ba1a6" offset="0"/>
      <stop id="stop224" style="stop-color:#b7b8b8" offset="1"/>
    </linearGradient>
  </defs>
  <g id="g10" transform="matrix(1.25 0 0 -1.25 0 62.1)">
    <g id="g12">
      <g id="g14">
        <g id="g30" mask="url(#mask22)">
          <g id="g42">
            <g id="g44" clip-path="url(#clipPath34)">
              <g id="g46" transform="translate(0 -.31968)">
                <g id="g50">
                  <g id="g52" clip-path="url(#clipPath38)">
                    <g id="g54">
                      <path id="path56" style="fill-rule:evenodd;fill:#000000" d="m65.398 11.762 3.641-1.043c0.828-0.239 1.106-0.414 0.84-0.52l-0.68-0.078 2.039-0.883c0.43-0.105 0.442-0.226 0.043-0.359-0.347-0.106-0.867-0.184-1.562-0.238-0.504-0.028-1.133-0.188-1.879-0.481-0.985-0.426-1.828-0.773-2.52-1.039-0.613-0.242-1.375-0.496-2.281-0.762-0.32-0.105-0.57-0.226-0.758-0.359-0.16-0.105-0.453-0.387-0.883-0.84-0.32-0.293-0.625-0.441-0.918-0.441-0.613 0.027-1.226-0.024-1.839-0.16-0.829-0.184-1.36-0.371-1.602-0.559-0.105-0.238-0.25-0.426-0.437-0.559-0.348-0.347-0.707-0.64-1.082-0.882-0.692-0.399-1.692-0.68-3-0.84l-1.079-0.16h-0.121c-0.508 0-0.867-0.039-1.082-0.118-0.211-0.054-0.558-0.16-1.039-0.32-0.64-0.215-1.066-0.402-1.277-0.562-0.215-0.161-0.602-0.239-1.16-0.239-0.801 0.028-1.508 0.039-2.121 0.039l-4.641 0.082c-0.535 0-1.121 0.145-1.762 0.438-1.093 0.535-2.172 1.055-3.238 1.562-1.254 0.586-2.039 0.879-2.359 0.879-0.801 0-1.375 0.039-1.719 0.121-0.883 0.184-1.481 0.227-1.801 0.118-0.883-0.266-1.652-0.438-2.32-0.52-1.176-0.16-2-0.211-2.481-0.16-0.828 0.109-1.332 0.16-1.519 0.16h-1.879c-0.617 0.055-1.977 0.227-4.082 0.52-1.867 0.269-3.039 0.562-3.52 0.882-0.347 0.399-0.84 0.731-1.48 1-1.012 0.426-1.68 0.692-2 0.797-0.453 0.215-0.801 0.414-1.039 0.602-0.426 0.348-0.922 0.613-1.481 0.801-0.375 0.132-0.945 0.504-1.718 1.121-0.215 0.183-0.524 0.531-0.922 1.039-0.321 0.426-0.668 0.773-1.039 1.039-0.403 0.293-0.801 0.492-1.2 0.601-0.507 0.161-0.789 0.254-0.839 0.278-0.375 0.16-0.907 0.308-1.602 0.441l2 0.399c0.215 0.054 0.426 0.187 0.641 0.402 0.214 0.211 0.437 0.344 0.679 0.398 0.293 0.055 0.492 0.2 0.602 0.442 0.183 0.347 0.359 0.597 0.519 0.758 2.934 0.8 6.321 1.652 10.161 2.562 2.078 0.481 5.839 0.426 11.277-0.16 7.336-0.801 12.723-1.215 16.16-1.242 5.121-0.078 8.906-0.332 11.359-0.758 1.414-0.242 3.188-0.641 5.321-1.199 1.574-0.297 2.761-0.602 3.562-0.922 1.199-0.481 2.239-0.84 3.117-1.078z" inkscape:connector-curvature="0"/>
                    </g>
                  </g>
                </g>
              </g>
            </g>
          </g>
        </g>
      </g>
      <path id="path58" style="fill-rule:evenodd;fill:#b0b1b3" d="m66.879 9.122-0.399-0.203c-1.281 0-2.386-0.172-3.32-0.516-0.371 0-0.691-0.094-0.961-0.281-0.211-0.11-0.476-0.321-0.797-0.641-0.8-0.109-1.402-0.215-1.8-0.32-1.094-0.055-1.989-0.188-2.68-0.403l-0.402 0.043c-0.454 0-0.918-0.199-1.399-0.601-0.453-0.348-0.855-0.918-1.199-1.719l-0.32-0.402-0.043-0.039c-0.321-0.293-0.598-0.614-0.84-0.961-1.707-0.344-2.973-0.614-3.797-0.797-1.469-0.348-2.695-0.762-3.684-1.242-1.679-0.028-3.586 0.16-5.718 0.562l-2.758 0.559-1.043 0.519c-0.321 0.266-0.707 0.426-1.16 0.481-0.266 0.187-0.614 0.32-1.039 0.398l-0.36 0.403c-0.48 0.32-0.855 0.492-1.121 0.519-0.266 0.133-0.547 0.199-0.84 0.199-1.465-0.054-2.785-0.238-3.961-0.558h-0.238c-2.879 0.531-5.215 0.851-7 0.957-2.188 0.136-3.801 0.336-4.84 0.601-0.879 0.321-1.922 0.762-3.121 1.321l-1.801 1.199c-1.304 0.906-2.703 1.812-4.199 2.719l-1.801 1.082c1.282 2.507 2.121 4.398 2.524 5.679 0.476 1.414 0.933 2.973 1.359 4.68 0.586 2.348 0.879 4.133 0.879 5.359 0 0.989 0.465 2.586 1.398 4.801 0.934 2.215 1.403 3.668 1.403 4.36 0 0.64 0.121 1.613 0.359 2.921 0.266 1.254 0.387 2.172 0.36 2.758l0.082 0.16c1.171 0.348 2.21 1.133 3.117 2.36 0.613 0.828 1.293 2.082 2.043 3.761 0.449 0.133 1.078 0.399 1.879 0.801l0.078 0.039c0.961-0.558 2.082-1 3.359-1.32 0.856-0.719 1.59-1.387 2.203-2 0.586-0.559 1.278-1.535 2.078-2.918 0.852-2.348 1.547-3.695 2.082-4.043 0.426-0.293 1.051-0.574 1.879-0.84 0.719-0.801 1.774-1.199 3.16-1.199 0.399 0 0.801 0.039 1.2 0.121 0.746-0.133 1.894-0.281 3.441-0.441l0.879-0.2c0.535-0.238 1.027-0.414 1.48-0.519 0.856-0.188 2.133-0.336 3.84-0.441 0.403-0.055 0.883-0.372 1.442-0.961 0.773-0.77 1.254-1.227 1.441-1.36l0.797-1.719c0.535-1.281 1.148-2.878 1.84-4.8 0.562-1.36 1.094-2.172 1.601-2.438 1.282-0.64 1.95-0.988 2-1.043 0.883-0.64 1.786-1.758 2.719-3.359 1.149-1.945 2.52-3.906 4.121-5.879 1.653-2.027 3.012-3.426 4.082-4.199 0.399-0.321 0.903-0.657 1.516-1z" inkscape:connector-curvature="0"/>
      <path id="path60" style="fill-rule:evenodd;fill:#c3c4c7" d="m15.719 21.481c-0.614-0.723-1.039-1.187-1.278-1.402-1.121-1.067-1.496-1.293-1.121-0.68 0.614 0.934 0.985 1.559 1.121 1.883 0.133 0.293 0.426 0.73 0.879 1.32 0.508 0.692 0.934 1.156 1.282 1.399 0.398 0.293 0.746 0.48 1.039 0.558 0.371 0.133 1.105 0.281 2.199 0.442 1.574 0.214 2.465 0.347 2.68 0.398 0.535 0.027 0.839 0.055 0.921 0.082h1c1.118 0 1.946-0.187 2.481-0.562l-0.883-0.797c-0.398-0.215-0.746-0.254-1.039-0.121-0.586-0.188-0.988-0.282-1.199-0.282-0.989 0-1.574-0.066-1.762-0.199-0.105-0.105-0.547-0.293-1.32-0.558-0.719-0.27-1.227-0.43-1.52-0.481-0.16-0.055-0.465-0.082-0.918-0.082-0.508-0.027-0.988-0.094-1.441-0.199-0.453-0.106-0.828-0.348-1.121-0.719z" inkscape:connector-curvature="0"/>
      <path id="path62" style="fill-rule:evenodd;fill:#c3c4c7" d="m14.039 16.88c0.75 0.425 1.336 0.64 1.762 0.64 0.293 0 0.945 0.067 1.961 0.199 0.984 0.161 1.613 0.282 1.879 0.36 0.187 0.054 0.504 0.203 0.961 0.441 0.476 0.293 0.851 0.481 1.117 0.559l1.601 0.441c0.508 0.188 0.813 0.172 0.918-0.039 0.11-0.187 0.043-0.348-0.199-0.48-0.238-0.161-0.519-0.536-0.84-1.121-0.238-0.399-0.359-0.825-0.359-1.278l-1.602 0.117c-0.16 0.028-0.465 0-0.918-0.078-0.535-0.109-1.132-0.148-1.8-0.121h-2.481c-0.664 0-1.414-0.082-2.238-0.242l-1.082-0.199 1.32 0.801z" inkscape:connector-curvature="0"/>
      <path id="path64" style="fill-rule:evenodd;fill:#c3c4c7" d="m40.398 30.559 0.723 1.16 1.317-5.64-0.079-3.84c-0.054-2.691-0.027-4.414 0.079-5.16 0.082-0.559 0.281-1.477 0.601-2.758 0.238-1.066 0.359-1.746 0.359-2.039 0-0.934 0.11-1.934 0.321-3 0.054-0.242 0.082-0.524 0.082-0.84-0.055-0.617-0.082-1.055-0.082-1.32 0-0.535-0.254-0.801-0.758-0.801l-0.762 0.16c0.16 0.027 0.403 0.133 0.723 0.32 0.211 0.106 0.277 0.372 0.199 0.801-0.133 0.531-0.242 0.93-0.32 1.199-0.16 0.692-0.281 1.426-0.36 2.2 0.051 0.879 0.051 1.547 0 2l-0.402 2.398c-0.691 0.856-1.105 1.453-1.238 1.801-0.082 0.187-0.293 0.535-0.641 1.039-0.32 0.48-0.492 0.773-0.519 0.883-0.028 0.238-0.028 0.824 0 1.758 0.027 1.066 0.082 1.867 0.16 2.402 0.078 0.933 0.144 1.703 0.199 2.32l-0.16 2.719c-0.078 0.613 0.105 1.359 0.558 2.238z" inkscape:connector-curvature="0"/>
      <g id="g66">
        <g id="g68">
          <g id="g74">
            <path id="path82" style="fill-rule:evenodd;fill:url(#linearGradient76)" d="m16.641 31.2c0-0.586-0.149-1.078-0.442-1.481-0.293-0.425-0.652-0.64-1.078-0.64s-0.801 0.215-1.121 0.64c-0.293 0.403-0.441 0.895-0.441 1.481 0 0.613 0.148 1.121 0.441 1.519 0.32 0.43 0.695 0.641 1.121 0.641s0.785-0.215 1.078-0.641c0.293-0.425 0.442-0.933 0.442-1.519z" inkscape:connector-curvature="0"/>
          </g>
        </g>
      </g>
      <g id="g84">
        <g id="g86">
          <g id="g92">
            <path id="path100" style="fill-rule:evenodd;fill:url(#linearGradient94)" d="m12.398 23.122c-0.105-0.453-0.293-0.817-0.558-1.082-0.293-0.266-0.602-0.36-0.918-0.282-0.32 0.055-0.547 0.27-0.684 0.641-0.16 0.348-0.199 0.746-0.117 1.203 0.106 0.449 0.293 0.813 0.559 1.078 0.293 0.266 0.601 0.36 0.922 0.282 0.32-0.055 0.558-0.27 0.718-0.641 0.133-0.348 0.16-0.746 0.078-1.199z" inkscape:connector-curvature="0"/>
          </g>
        </g>
      </g>
      <g id="g102">
        <g id="g104">
          <g id="g110">
            <path id="path118" style="fill-rule:evenodd;fill:url(#linearGradient112)" d="m38.441 24.001c0-0.586-0.148-1.082-0.441-1.481-0.293-0.426-0.652-0.64-1.078-0.64-0.43 0-0.801 0.214-1.121 0.64-0.293 0.399-0.442 0.895-0.442 1.481 0 0.613 0.149 1.117 0.442 1.519 0.32 0.426 0.691 0.641 1.121 0.641 0.426 0 0.785-0.215 1.078-0.641s0.441-0.933 0.441-1.519z" inkscape:connector-curvature="0"/>
          </g>
        </g>
      </g>
      <g id="g120">
        <g id="g122">
          <g id="g128">
            <path id="path136" style="fill-rule:evenodd;fill:url(#linearGradient130)" d="m39.961 13.68c0.078-0.48 0.012-0.922-0.199-1.32-0.215-0.371-0.524-0.602-0.922-0.68-0.399-0.078-0.774 0.028-1.117 0.321-0.348 0.293-0.575 0.679-0.684 1.16-0.078 0.453 0 0.879 0.242 1.281 0.211 0.398 0.52 0.625 0.918 0.68 0.403 0.078 0.774-0.028 1.121-0.321 0.348-0.269 0.559-0.64 0.641-1.121z" inkscape:connector-curvature="0"/>
          </g>
        </g>
      </g>
      <g id="g138">
        <g id="g140">
          <g id="g146">
            <path id="path154" style="fill-rule:evenodd;fill:url(#linearGradient148)" d="m34 19.399c0-0.453-0.121-0.824-0.359-1.117-0.266-0.32-0.575-0.481-0.922-0.481-0.344 0-0.653 0.157-0.918 0.481-0.27 0.32-0.403 0.691-0.403 1.117s0.137 0.801 0.403 1.121c0.265 0.32 0.574 0.481 0.918 0.481 0.347 0 0.656-0.161 0.922-0.481 0.238-0.293 0.359-0.668 0.359-1.121z" inkscape:connector-curvature="0"/>
          </g>
        </g>
      </g>
      <g id="g156">
        <g id="g158">
          <g id="g164">
            <path id="path172" style="fill-rule:evenodd;fill:url(#linearGradient166)" d="m22.922 20.801c-0.055-0.453-0.227-0.828-0.524-1.121-0.293-0.32-0.613-0.453-0.957-0.398-0.32 0.023-0.574 0.226-0.761 0.598-0.188 0.375-0.254 0.8-0.2 1.281 0.051 0.453 0.227 0.828 0.52 1.121 0.266 0.293 0.574 0.426 0.922 0.398 0.344-0.054 0.613-0.254 0.797-0.601 0.187-0.371 0.254-0.797 0.203-1.278z" inkscape:connector-curvature="0"/>
          </g>
        </g>
      </g>
      <g id="g174">
        <g id="g176">
          <g id="g182">
            <path id="path190" style="fill-rule:evenodd;fill:url(#linearGradient184)" d="m49.84 18.719c-0.238-0.558-0.574-0.972-1-1.238-0.453-0.266-0.879-0.32-1.281-0.16-0.399 0.187-0.653 0.531-0.758 1.039-0.11 0.508-0.039 1.027 0.199 1.559 0.215 0.535 0.547 0.933 1 1.203 0.453 0.293 0.867 0.347 1.238 0.16 0.403-0.16 0.668-0.496 0.801-1 0.109-0.508 0.039-1.027-0.199-1.563z" inkscape:connector-curvature="0"/>
          </g>
        </g>
      </g>
      <g id="g192">
        <g id="g194">
          <g id="g200">
            <path id="path208" style="fill-rule:evenodd;fill:url(#linearGradient202)" d="m46.801 12.481c0-0.453-0.121-0.855-0.36-1.199-0.214-0.32-0.496-0.481-0.839-0.481-0.321 0-0.602 0.157-0.84 0.481-0.242 0.344-0.364 0.746-0.364 1.199 0 0.426 0.122 0.813 0.364 1.16 0.238 0.317 0.515 0.481 0.84 0.481 0.343 0 0.625-0.16 0.839-0.481 0.239-0.32 0.36-0.707 0.36-1.16z" inkscape:connector-curvature="0"/>
          </g>
        </g>
      </g>
      <g id="g210">
        <g id="g212">
          <g id="g218">
            <path id="path226" style="fill-rule:evenodd;fill:url(#linearGradient220)" d="m28.84 30.079c-0.133-0.531-0.371-0.946-0.719-1.239-0.32-0.32-0.652-0.425-1-0.32-0.32 0.106-0.547 0.375-0.68 0.801-0.136 0.453-0.121 0.934 0.039 1.437 0.133 0.536 0.375 0.95 0.719 1.243 0.321 0.293 0.656 0.386 1 0.281 0.321-0.082 0.547-0.336 0.68-0.762 0.133-0.453 0.121-0.933-0.039-1.441z" inkscape:connector-curvature="0"/>
          </g>
        </g>
      </g>
      <path id="path228" style="fill-rule:evenodd;fill:#9b9c9e" d="m25.039 44.84c0.563 0.161 0.949 0.321 1.16 0.481 0.426-0.613 0.946-1.453 1.563-2.52l0.558-1.64c0.321-1.094 1.293-1.922 2.918-2.481v-0.039c-0.851-0.48-2.078-1-3.679-1.562-0.879-0.321-1.321-0.824-1.321-1.52 0-1.039-0.183-1.824-0.558-2.359-0.907-1.332-1.985-2.735-3.239-4.199-0.375 1.332-0.586 2.691-0.64 4.078-0.028 0.613 0.105 1.269 0.398 1.961 0.266 0.64 0.348 1.496 0.242 2.562-0.214 1.973-0.679 3.344-1.402 4.117l1.922 2.403 2.078 0.718z" inkscape:connector-curvature="0"/>
      <path id="path230" style="fill-rule:evenodd;fill:#9b9c9e" d="m67.078 9.239-0.598-0.32c-1.281 0-2.386-0.172-3.32-0.516-0.371 0-0.691-0.094-0.961-0.281-0.211-0.11-0.476-0.321-0.797-0.641-0.8-0.109-1.402-0.215-1.8-0.32-1.094-0.055-1.989-0.188-2.68-0.403l-0.402 0.043c-0.454 0-0.918-0.199-1.399-0.601-0.453-0.348-0.855-0.918-1.199-1.719l-0.32-0.402-0.043-0.039c-0.321-0.293-0.598-0.614-0.84-0.961-1.731-0.344-3.028-0.614-3.879-0.797-1.469-0.375-2.695-0.801-3.68-1.281l-3.402 0.078c-1.094 0.054-2.492 0.281-4.199 0.679l-1.84 0.922c-0.321 0.266-0.707 0.426-1.16 0.481-0.266 0.187-0.614 0.32-1.039 0.398l-0.36 0.403c-0.48 0.32-0.855 0.492-1.121 0.519-0.266 0.133-0.547 0.199-0.84 0.199-1.492-0.054-2.801-0.238-3.922-0.558l-2.636 0.078c-1.707 0.242-3.762 0.414-6.161 0.519-2.906 0.641-5.816 1.817-8.722 3.52-0.774 0.586-1.918 1.387-3.438 2.402l-2.082 1.36c2.106-0.641 3.657-0.961 4.641-0.961 0.613 0 1.266-0.282 1.961-0.84 0.348-0.266 0.746-0.613 1.199-1.039 0.613-0.375 1.238-0.613 1.879-0.719 0.348-0.082 1.043-0.441 2.082-1.082l0.758-0.359c0.722-0.243 1.562-0.36 2.519-0.36 1.043 0 1.778 0.051 2.203 0.16 0.372 0.106 1.211 0.399 2.52 0.879 0.824 0.293 1.852 0.762 3.078 1.399 1.094 0.562 2.094 0.976 3 1.242 0.883 0.238 1.602 0.453 2.16 0.641 0.16 0.027 0.387-0.082 0.68-0.321 0.27-0.238 0.574-0.64 0.922-1.199 0.215-0.293 0.465-0.707 0.758-1.242 0.136-0.184 0.656-0.387 1.562-0.598 1.117-0.293 2-0.613 2.641-0.961 0.504-0.265 1.051-0.679 1.637-1.238 0.453-0.375 1.07-0.695 1.839-0.961 1.016-0.375 1.801-0.508 2.364-0.402 0.48 0.082 1.011 0.386 1.597 0.922 0.481 0.425 0.801 0.933 0.961 1.519 0.215 0.984 0.453 1.984 0.719 3 0.32 1.199 0.652 2.012 1 2.438 0.375 0.507 0.574 0.816 0.602 0.921 0.851 2.481 1.546 4.094 2.078 4.84 0.375 0.481 1.015 1.266 1.922 2.36 0.718 0.961 1.066 1.707 1.039 2.242-0.051 0.504-0.52 1.023-1.399 1.558l-1.32 0.641c-0.988-0.48-1.934-0.894-2.84-1.242-0.773-0.32-1.453-0.731-2.039-1.238-0.773-0.668-1.668-1.696-2.684-3.082-1.304-1.813-1.718-3.25-1.238-4.317-0.32 0.613-0.851 1.449-1.601 2.516-0.399 0.59-0.598 1.562-0.598 2.922 0.051 1.734 0.078 3.105 0.078 4.121 0 1.172-0.172 2.304-0.52 3.398-0.265 0.879-0.371 1.36-0.32 1.442 0.133 0.265 0.547 1.32 1.242 3.16l1.118 0.879c0.882 0.668 1.628 1.172 2.242 1.519 0.508 0.293 0.879 0.68 1.121 1.16 0.293-0.16 0.746-0.574 1.359-1.238 0.586-0.613 1.067-1 1.438-1.16l0.281-0.082c0.828-1.492 1.32-2.625 1.48-3.399 0.215-1.039 0.879-2.656 2-4.839l1.403-0.563c1.011-0.48 1.73-0.957 2.16-1.437 0.691-0.75 1.918-2.563 3.68-5.442 0.293-0.453 1.05-1.414 2.277-2.879 1.226-1.523 1.976-2.48 2.242-2.882 0.266-0.45 1.254-1.305 2.957-2.559z" inkscape:connector-curvature="0"/>
      <path id="path232" style="fill-rule:evenodd;fill:#9b9c9e" d="m11.039 14.001 4.281 0.117c0.879 0 2.84 0.535 5.879 1.601 1.121 0.399 1.723 0.922 1.801 1.559 0.188 1.043 0.465 1.816 0.84 2.32 0.668 0.883 1.094 1.883 1.281 3l0.078 1.403 1.723 0.918 1.078-0.758c0.773-0.696 1.215-1.453 1.32-2.281 0.215-1.547 0.575-2.934 1.078-4.161 0.348-0.879 1.188-2.25 2.524-4.117l-2.281 0.399c-0.321-0.106-0.668-0.243-1.039-0.399-0.696-0.32-1.094-0.586-1.204-0.801-0.132-0.265-1.066-0.64-2.796-1.121-1.762-0.48-3.457-0.812-5.082-1-1.332-0.16-2.227-0.132-2.68 0.082-0.481 0.371-1.094 0.692-1.84 0.957-0.961 0.321-2.066 0.801-3.32 1.442l-1.641 0.84z" inkscape:connector-curvature="0"/>
      <path id="path234" style="fill-rule:evenodd;fill:#c3c4c7" d="m25.281 46.36c0.239-0.215 0.52-0.535 0.84-0.961-0.32-0.184-0.867-0.426-1.641-0.719l-1.519-0.558c-0.215-0.082-0.602-0.508-1.16-1.282l-0.762-1.121-1.199 0.563-1.84 1.437c-0.906-0.16-2.027-0.238-3.359-0.238h-0.52c0.746 0.531 1.453 1.305 2.117 2.32 0.43 0.719 0.934 1.735 1.524 3.039 0.449 0.133 1.078 0.399 1.879 0.801l0.078 0.039c0.961-0.558 2.082-1 3.359-1.32 0.856-0.719 1.59-1.387 2.203-2z" inkscape:connector-curvature="0"/>
      <path id="path236" style="fill-rule:evenodd;fill:#c3c4c7" d="m39.039 32.52c-0.664-0.105-1.199-0.133-1.598-0.078-0.429 0.106-0.828 0.184-1.203 0.238-0.984 0.106-2.093 0.586-3.316 1.442-0.32 0.238-0.895 0.371-1.723 0.398-1.121 0.028-1.972 0.121-2.558 0.281-0.829 0.211-1.387 0.559-1.68 1.039l-0.16 0.68 4.437 2.121c0.723-0.855 1.801-1.281 3.242-1.281 0.399 0 0.801 0.039 1.2 0.121 0.746-0.133 1.894-0.281 3.441-0.441l0.84-0.2c0.613-0.265 1.117-0.441 1.519-0.519 0.852-0.188 2.133-0.336 3.84-0.441h0.039l-0.437-0.399c-1.043-0.879-2.067-1.508-3.082-1.879-0.801-0.535-1.735-0.894-2.801-1.082z" inkscape:connector-curvature="0"/>
      <path id="path238" style="fill-rule:evenodd;fill:#838485" d="m66.121 9.2c0.133-0.027 0.399-0.039 0.801-0.039l-0.442-0.242c-1.281 0-2.386-0.172-3.32-0.52-0.375 0-0.695-0.094-0.961-0.281-0.211-0.106-0.48-0.317-0.801-0.637-0.796-0.109-1.398-0.215-1.796-0.32-1.094-0.055-1.989-0.188-2.68-0.403l-0.402 0.043c-0.454 0-0.918-0.199-1.399-0.601-0.453-0.348-0.855-0.918-1.199-1.719l-0.32-0.402-0.043-0.039c-0.321-0.293-0.598-0.614-0.84-0.961-1.731-0.344-3.028-0.614-3.879-0.797-1.469-0.375-2.695-0.801-3.68-1.281l-3.402 0.078c-1.094 0.054-2.492 0.281-4.199 0.679l-1.84 0.922c-0.321 0.266-0.707 0.426-1.16 0.481-0.266 0.187-0.614 0.32-1.039 0.398l-0.36 0.403c-0.48 0.32-0.855 0.492-1.121 0.519-0.266 0.133-0.547 0.199-0.84 0.199-1.465-0.054-2.785-0.238-3.961-0.558l-4.32 0.117c-2.934 0.027-5.852 0.629-8.758 1.801-2.43 0.988-5.027 2.453-7.801 4.402 1.012-0.215 1.829-0.363 2.442-0.441-0.348 0 0.183-0.442 1.597-1.321 0.856-0.535 1.586-1.093 2.2-1.679 0.429-0.348 1.16-0.547 2.203-0.602 0.906-0.051 2.105-0.293 3.597-0.719 1.414-0.398 2.348-0.601 2.801-0.601 0.481 0 1.028-0.024 1.641-0.078 0.558 0 1.254 0.105 2.078 0.32 0.562 0.16 1.426 0.359 2.602 0.598 0.824 0.16 1.386 0.32 1.679 0.48 0.348 0.16 0.785 0.281 1.321 0.359 0.265 0.028 0.492 0.043 0.679 0.043l1.321-0.683c0.242-0.106 0.828-0.477 1.761-1.117 0.879-0.614 1.492-0.989 1.84-1.121 0.774-0.348 1.25-0.547 1.438-0.598 0.64-0.242 1.453-0.442 2.441-0.602 1.281-0.238 2.785-0.347 4.52-0.32 1.945 0 3.32 0.188 4.121 0.559 0.984 0.453 1.531 0.707 1.636 0.761 0.243 0.133 0.457 0.332 0.645 0.602 0.531 0.691 1.105 1.359 1.719 2 0.347 0.32 0.613 0.824 0.797 1.519 0.16 0.692 0.347 1.118 0.562 1.278 0.027 0.027 0.199 0.347 0.52 0.961 0.187 0.32 0.546 0.402 1.078 0.242 0.402-0.137 0.855-0.227 1.363-0.281 0.477-0.082 1-0.215 1.559-0.399 0.531-0.187 1.105-0.387 1.718-0.601 0.399-0.082 0.719-0.016 0.961 0.199 0.028 0.027 0.188 0.281 0.481 0.758 0.16 0.269 0.398 0.375 0.718 0.32 0.266-0.051 0.973-0.277 2.122-0.68 0.16-0.05 0.695-0.183 1.601-0.398z" inkscape:connector-curvature="0"/>
    </g>
  </g>
<metadata><rdf:RDF><cc:Work><dc:format>image/svg+xml</dc:format><dc:type rdf:resource="http://purl.org/dc/dcmitype/StillImage"/><cc:license rdf:resource="http://creativecommons.org/licenses/publicdomain/"/><dc:publisher><cc:Agent rdf:about="http://openclipart.org/"><dc:title>Openclipart</dc:title></cc:Agent></dc:publisher></cc:Work><cc:License rdf:about="http://creativecommons.org/licenses/publicdomain/"><cc:permits rdf:resource="http://creativecommons.org/ns#Reproduction"/><cc:permits rdf:resource="http://creativecommons.org/ns#Distribution"/><cc:permits rdf:resource="http://creativecommons.org/ns#DerivativeWorks"/></cc:License></rdf:RDF></metadata></svg>
