<?xml version="1.0" encoding="UTF-8"?>
<!DOCTYPE svg PUBLIC "-//W3C//DTD SVG 1.1//EN" "http://www.w3.org/Graphics/SVG/1.1/DTD/svg11.dtd">
<svg version="1.1" xmlns="http://www.w3.org/2000/svg" xmlns:xlink="http://www.w3.org/1999/xlink" x="0" y="0" width="1004" height="1016" viewBox="0, 0, 1004, 1016">
  <g id="Layer_1">
    <path d="M533.396,526.604 L16.916,868.791 C16.916,868.791 -9.661,859 15.69,828.815 C107.766,694.688 396.717,499.973 396.717,499.973 C396.717,499.973 441.81,474.615 461.197,476.664 C480.658,478.732 524.132,464.481 524.132,464.481 C524.132,464.481 516.34,518.574 533.396,526.604" fill="#999999"/>
    <path d="M16.916,873.012 C16.426,873.012 15.929,872.926 15.457,872.754 C14.996,872.582 4.125,868.465 1.211,857.49 C-1.2,848.416 2.585,837.857 12.457,826.096 C103.68,693.18 391.46,498.42 394.355,496.469 C396.484,495.266 441.546,470.4 461.639,472.462 C480.26,474.529 522.426,460.604 522.818,460.468 C524.205,460.014 525.727,460.297 526.843,461.247 C527.96,462.185 528.524,463.634 528.315,465.082 C525.272,486.26 525.396,518.169 535.199,522.782 C536.573,523.433 537.494,524.776 537.604,526.298 C537.715,527.819 537.003,529.279 535.727,530.126 L19.248,872.313 C18.548,872.773 17.732,873.012 16.916,873.012 z M458.829,480.769 C439.7,480.769 399.196,503.426 398.785,503.652 C396.196,505.414 109.735,699.277 19.168,831.207 C11.064,840.889 7.757,849.092 9.352,855.25 C10.548,859.857 14.315,862.637 16.591,863.938 L526.278,526.248 C515.972,514.01 517.592,484.807 519.138,470.462 C506.106,474.377 476.339,482.585 460.75,480.861 C460.142,480.8 459.498,480.769 458.829,480.769" fill="#1A1919"/>
    <path d="M466.265,41.065 C387.944,122.447 374.606,236.248 393.674,297.274 C412.484,357.477 407.589,422.344 402.963,448.633 C448.412,458.051 473.615,429.081 473.615,429.081 C469.958,441.983 474.191,445.664 474.191,445.664 C505.579,410.859 508.352,420.473 517.824,408.614 C527.347,396.663 533.186,375.116 529.812,363.196 C538.708,332.747 620.281,209.916 644.896,159.626 C743.462,30.758 548.01,-43.845 466.265,41.065 z M615.827,101.889 C568.219,172.731 533.702,235.364 514.904,259.414 C496.363,283.163 408.987,302.2 421.749,216.64 C434.878,128.558 480.658,72.465 534.893,58.354 C590.06,44.01 629.68,83.741 615.827,101.889" fill="#0067A5"/>
    <path d="M420.822,454.738 C414.718,454.738 408.417,454.075 402.104,452.769 C399.871,452.303 398.411,450.148 398.803,447.903 C403.822,419.375 407.54,355.821 389.644,298.532 C368.612,231.217 387.251,117.079 463.222,38.139 C486.498,13.954 520.082,0.641 557.764,0.641 C606.992,0.641 651.484,23.77 668.491,58.201 C679.117,79.685 684.221,115.165 648.245,162.191 C637.827,183.67 615.704,220.303 594.305,255.733 C567.544,300.053 539.887,345.852 534.193,363.312 C537.187,376.54 531.285,398.503 521.125,411.246 C516.978,416.442 513.727,418.172 509.972,420.179 C504.192,423.258 496.277,427.473 477.327,448.492 C475.781,450.21 473.167,450.375 471.418,448.848 C470.719,448.24 468.253,445.682 467.946,439.646 C458.866,446.283 442.957,454.738 420.822,454.738 z M407.803,445.229 C412.202,445.934 416.57,446.296 420.822,446.296 C452.676,446.296 470.253,426.51 470.431,426.308 C471.725,424.81 473.879,424.418 475.627,425.369 C477.363,426.308 478.216,428.332 477.676,430.234 C476.879,433.044 476.517,435.283 476.394,437.044 C492.67,419.829 500.585,415.608 505.996,412.725 C509.407,410.909 511.469,409.81 514.523,405.976 C523.248,395.025 528.708,374.791 525.751,364.343 C525.53,363.582 525.543,362.772 525.764,362.012 C530.917,344.367 558.193,299.194 587.078,251.365 C608.379,216.094 630.404,179.621 641.104,157.767 C667.927,122.564 674.626,89.674 660.92,61.943 C645.3,30.329 603.852,9.083 557.764,9.083 C522.401,9.083 490.977,21.482 469.308,43.992 C395.588,120.595 377.398,231.015 397.705,296.016 C415.264,352.22 412.57,414.271 407.803,445.229 z M464.467,283.74 C448.786,283.74 436.056,278.586 427.65,268.832 C417.491,257.052 414.104,239.278 417.57,216.014 C430.147,131.632 474.695,69.655 533.825,54.268 C541.984,52.145 550.193,51.071 558.23,51.071 C590.047,51.071 612.551,67.256 619.986,82.293 C624.011,90.428 623.717,98.508 619.19,104.453 C595.544,139.65 574.771,173.406 558.083,200.535 C541.138,228.07 527.764,249.819 518.229,262.015 C508.72,274.2 485.105,283.74 464.467,283.74 z M558.23,59.513 C550.917,59.513 543.42,60.501 535.96,62.44 C480.154,76.956 437.994,136.282 425.927,217.26 C422.834,237.984 425.565,253.481 434.049,263.322 C442.577,273.218 455.302,275.298 464.467,275.298 C484.652,275.298 504.634,265.703 511.579,256.813 C520.818,244.99 534.083,223.419 550.893,196.112 C567.617,168.921 588.44,135.08 612.317,99.533 C615.913,94.815 613.913,89.06 612.416,86.036 C605.9,72.857 585.188,59.513 558.23,59.513" fill="#1A1919"/>
    <path d="M475.382,424.283 C455.97,444.523 416.264,455.032 405.282,446.014 C399.896,479.861 395.134,498.088 378.987,532.113 C363.048,565.637 162.491,1007.623 162.491,1007.623 C162.491,1007.623 180.638,1015.807 189.583,1007.23 C310.604,919.547 477.357,542.439 477.357,542.439 C477.357,542.439 490.315,526.219 483.039,501.34 C475.762,476.303 470.425,450.769 475.382,424.283" fill="#ACACAC"/>
    <path d="M178.209,1015.371 C178.203,1015.371 178.203,1015.371 178.203,1015.371 C169.497,1015.371 161.11,1011.629 160.754,1011.469 C159.73,1011.01 158.932,1010.162 158.54,1009.113 C158.141,1008.064 158.184,1006.898 158.644,1005.881 C160.65,1001.457 359.397,563.471 375.171,530.298 C391.036,496.88 395.76,478.984 401.11,445.351 C401.349,443.854 402.368,442.602 403.785,442.063 C405.214,441.535 406.797,441.792 407.963,442.75 C409.006,443.609 411.687,445.05 417.877,445.044 C433.142,445.044 458.302,435.989 472.332,421.363 C473.627,420.007 475.658,419.675 477.315,420.528 C478.971,421.381 479.879,423.222 479.535,425.062 C474.621,451.296 480.266,476.664 487.094,500.162 C494.277,524.727 483.266,541.519 481.02,544.593 C471.768,565.477 311.642,924.014 192.062,1010.647 C188.982,1013.66 184.172,1015.371 178.209,1015.371 z M168.215,1005.223 C170.896,1006.053 174.577,1006.924 178.203,1006.924 L178.209,1006.924 C181.92,1006.924 184.761,1006.002 186.663,1004.18 C305.831,917.793 471.83,544.494 473.492,540.734 C473.639,540.408 473.83,540.096 474.044,539.82 C474.517,539.219 485.511,524.838 478.983,502.524 C472.83,481.352 467.615,458.67 469.682,434.854 C449.903,449.572 421.969,456.333 408.54,452.303 C403.38,483.297 398.196,501.481 382.803,533.924 C367.882,565.299 188.675,960.143 168.215,1005.223" fill="#1A1919"/>
    <path d="M447.111,508.672 C458.154,515.623 459.295,530.74 449.749,542.402 C440.227,554.023 423.7,557.857 412.718,551.041 C401.711,544.17 400.386,529.133 409.847,517.39 C419.368,505.616 436.056,501.695 447.111,508.672" fill="#ACACAC"/>
    <path d="M425.153,558.637 C419.785,558.637 414.711,557.25 410.491,554.63 C404.65,550.979 400.803,545.236 399.662,538.451 C398.318,530.494 400.828,521.85 406.558,514.739 C413.522,506.132 423.988,500.99 434.553,500.99 C439.982,500.99 445.105,502.414 449.363,505.102 C455.185,508.764 459.001,514.524 460.105,521.322 C461.412,529.322 458.829,537.979 453.019,545.077 C446.062,553.568 435.645,558.637 425.153,558.637 z M434.553,509.439 C426.632,509.439 418.423,513.5 413.129,520.046 C408.92,525.268 407.049,531.463 407.987,537.047 C408.736,541.482 411.147,545.084 414.957,547.458 C423.785,552.942 438.639,549.292 446.485,539.727 C450.755,534.5 452.688,528.291 451.774,522.678 C451.05,518.242 448.657,514.635 444.859,512.248 C441.952,510.408 438.387,509.439 434.553,509.439" fill="#1A1919"/>
    <path d="M440.448,504.475 C451.492,511.438 452.669,526.58 443.136,538.249 C433.638,549.894 417.074,553.74 406.08,546.899 C395.036,540.028 393.735,524.954 403.159,513.218 C412.656,501.42 429.393,497.475 440.448,504.475" fill="#ACACAC"/>
    <path d="M418.54,554.507 C413.159,554.507 408.08,553.114 403.846,550.482 C398.012,546.851 394.159,541.114 393.005,534.328 C391.644,526.354 394.147,517.696 399.865,510.573 C406.815,501.941 417.288,496.787 427.884,496.787 C433.326,496.787 438.448,498.211 442.706,500.904 C448.535,504.58 452.356,510.359 453.467,517.175 C454.768,525.176 452.197,533.832 446.406,540.924 C439.467,549.428 429.049,554.507 418.54,554.507 z M427.884,505.231 C419.945,505.231 411.73,509.304 406.448,515.868 C402.245,521.102 400.374,527.316 401.331,532.905 C402.085,537.348 404.497,540.942 408.312,543.316 C417.184,548.838 432.043,545.163 439.866,535.58 C444.129,530.359 446.043,524.15 445.129,518.531 C444.406,514.076 442.007,510.451 438.197,508.046 C435.283,506.205 431.718,505.231 427.884,505.231" fill="#1A1919"/>
    <path d="M421.319,511.162 C405.294,525.027 417.319,538.905 424.239,536.292 C409.957,553.894 390.95,522.445 421.319,511.162" fill="#FFFFFF"/>
    <path d="M594.525,9.954 C651.57,30.23 687.313,85.416 633.533,155.976 C609.041,206.259 527.861,329.109 519.015,359.558 C522.401,371.472 516.622,393.006 507.125,404.963 C498.756,415.503 495.578,409.154 472.891,432.185 C470.756,442.51 474.191,445.664 474.191,445.664 C505.579,410.859 508.352,420.473 517.824,408.614 C527.347,396.663 533.186,375.116 529.812,363.196 C538.708,332.747 620.281,209.916 644.896,159.626 C702.504,84.306 658.098,26.543 594.525,9.954" fill="#005E9E"/>
    <path d="M421.749,216.64 C434.878,128.558 480.658,72.465 534.893,58.354 C550.574,54.28 564.954,54.685 577.299,57.642 C562.905,51.704 544.341,49.391 523.603,54.79 C469.492,68.913 423.92,125.018 410.951,213.069 C404.938,253.752 421.16,270.543 441.835,274.776 C426.73,267.23 416.767,249.923 421.749,216.64" fill="#005E9E"/>
    <path d="M547.273,82.87 C577.838,75.054 603.63,83.821 618.207,96.238 C621.962,76.716 584.82,45.372 534.893,58.354 C480.658,72.465 434.878,128.558 421.749,216.64 C416.84,249.475 426.448,266.77 441.136,274.482 C438.792,265.537 438.142,254.297 440.387,239.775 C453.762,152.147 493.051,96.748 547.273,82.87" fill="#005E9E"/>
    <path d="M441.136,278.703 C440.467,278.703 439.792,278.543 439.172,278.218 C426.104,271.359 411.748,254.997 417.57,216.014 C430.147,131.632 474.695,69.655 533.825,54.268 C541.984,52.145 550.181,51.071 558.206,51.071 C585.605,51.071 605.459,63.274 614.882,74.698 C621.042,82.146 623.692,90.079 622.354,97.036 C622.072,98.514 621.029,99.723 619.606,100.22 C618.171,100.729 616.612,100.429 615.471,99.453 C599.287,85.673 573.348,80.563 548.316,86.962 C495.185,100.557 457.369,156.491 444.559,240.414 C442.596,253.138 442.816,264.236 445.222,273.415 C445.645,275.028 445.074,276.746 443.761,277.789 C443,278.396 442.068,278.703 441.136,278.703 z M558.206,59.52 C550.905,59.52 543.408,60.501 535.96,62.44 C480.154,76.956 437.994,136.282 425.927,217.26 C422.632,239.297 425.736,255.254 435.16,264.88 C434.393,257.132 434.749,248.623 436.215,239.131 C449.559,151.706 489.658,93.256 546.23,78.778 C570.022,72.722 594.685,76.042 612.809,87.14 C611.814,84.827 610.317,82.428 608.379,80.078 C600.17,70.14 582.673,59.52 558.206,59.52" fill="#1A1919"/>
    <path d="M530.414,381.012 C530.242,381.012 530.07,381.006 529.898,380.981 C527.579,380.699 525.935,378.589 526.218,376.276 C527.15,368.772 524.855,362.545 522.646,356.527 C519.727,348.588 516.708,340.385 521.996,330.937 C523.138,328.888 525.714,328.188 527.739,329.312 C529.775,330.453 530.5,333.029 529.358,335.06 C526.132,340.833 527.629,345.631 530.573,353.613 C533.015,360.251 535.775,367.779 534.61,377.307 C534.34,379.448 532.524,381.012 530.414,381.012" fill="#1A1919"/>
    <path d="M513.052,414.841 C512.892,414.841 512.72,414.835 512.548,414.81 C506.99,414.148 504.204,411.252 502.83,408.939 C499.26,402.896 500.462,393.301 506.708,377.828 C511.738,365.331 515.702,359.748 520.831,357.913 C524.119,356.735 527.739,357.245 531.837,359.49 C533.887,360.606 534.635,363.177 533.519,365.22 C532.39,367.288 529.812,368.018 527.788,366.901 C524.99,365.368 524.021,365.736 523.678,365.864 C521.321,366.705 518.242,371.797 514.536,380.987 C508.033,397.092 508.966,402.724 510.106,404.644 C510.512,405.331 511.272,406.154 513.555,406.43 C515.873,406.706 517.518,408.81 517.248,411.123 C516.99,413.271 515.162,414.841 513.052,414.841" fill="#1A1919"/>
    <path d="M608.379,394.129 C581.237,399.148 569.654,396.736 569.654,396.736 L543.543,419.633 L547.04,454.867" fill="#0067A5"/>
    <path d="M547.04,459.088 C544.893,459.088 543.052,457.462 542.844,455.283 L539.347,420.05 C539.212,418.694 539.739,417.356 540.758,416.455 L566.869,393.558 C567.851,392.693 569.212,392.301 570.513,392.601 C570.587,392.607 581.912,394.73 607.606,389.976 C610.097,389.552 612.121,391.08 612.526,393.362 C612.956,395.657 611.435,397.859 609.152,398.282 C587.789,402.227 575.63,401.7 570.991,401.184 L547.96,421.375 L551.236,454.449 C551.47,456.769 549.776,458.836 547.457,459.069 C547.31,459.082 547.175,459.088 547.04,459.088" fill="#1A1919"/>
    <path d="M916.693,173.498 C825.733,152.792 793.99,196.56 712.259,280.93 C641.827,357.993 523.457,454.604 523.457,454.604 C513.383,497.224 518.242,532.391 531.358,537.813 C561.985,522.93 594.783,506.469 620.563,502.131 C718.848,496.764 849.121,471.628 938.89,387.73 C1032.929,299.899 1012.155,195.198 916.693,173.498 z M792.384,414.823 C719.081,442.59 680.172,409.596 704.455,369.435 L847.771,230.886 C874.521,211.959 901.993,210.063 939.687,235.8 C1004.143,297.985 867.624,386.313 792.384,414.823" fill="#0067A5"/>
    <path d="M531.358,542.034 C530.807,542.034 530.267,541.93 529.739,541.715 C513.53,535.01 509.063,497.144 519.346,453.633 C519.555,452.726 520.07,451.922 520.781,451.332 C521.972,450.369 639.729,354.03 709.142,278.083 C716.1,270.899 722.602,264.101 728.836,257.598 C784.616,199.345 818.298,164.185 875.87,164.185 C888.606,164.185 902.275,165.884 917.626,169.381 C960.351,179.093 990.548,205.744 1000.475,242.5 C1013.101,289.243 991.161,344.686 941.773,390.816 C849.723,476.843 716.418,501.125 620.796,506.346 C597.532,510.291 567.47,524.93 538.401,539.084 L533.199,541.611 C532.622,541.893 531.997,542.034 531.358,542.034 z M527.248,456.959 C517.727,498.352 523.42,526.893 531.493,533.047 L534.696,531.488 C564.316,517.07 594.931,502.162 619.864,497.966 C714.553,492.769 845.808,468.94 936.007,384.644 C983.075,340.686 1004.118,288.372 992.327,244.702 C983.234,211.063 955.332,186.608 915.761,177.614 C901.024,174.258 887.969,172.633 875.87,172.633 C821.894,172.633 791.009,204.885 734.934,263.439 C728.701,269.954 722.173,276.764 715.289,283.869 C649.178,356.207 539.506,446.879 527.248,456.959 z M743.045,429.326 C721.326,429.326 704.602,421.755 697.154,408.553 C690.528,396.804 691.841,382.141 700.835,367.251 C701.031,366.938 701.252,366.65 701.523,366.398 L844.839,227.849 C876.766,205.13 905.307,207.223 942.068,232.315 C957.7,247.31 963.394,264.144 959.565,282.807 C948.313,337.545 855.906,395.27 793.88,418.774 C775.389,425.774 758.284,429.326 743.045,429.326 z M707.792,372.085 C700.687,384.08 699.51,395.54 704.517,404.405 C710.418,414.872 724.455,420.878 743.045,420.878 C757.266,420.878 773.364,417.51 790.887,410.872 C849.379,388.711 940.804,332.14 951.295,281.108 C954.547,265.249 949.798,251.42 936.755,238.837 C904.079,216.658 878.238,214.511 850.213,234.333 L707.792,372.085" fill="#1A1919"/>
    <path d="M709.964,416.344 C695.805,406.319 692.725,388.785 704.455,369.435 L847.771,230.886 C865.342,218.444 883.318,213.579 904.264,218.904 C874.446,203.603 851.133,207.216 828.384,223.401 L685.914,362.055 C670.368,388.019 681.129,410.78 709.964,416.344" fill="#005E9E"/>
    <path d="M924.767,175.872 C995.137,210.364 1002.818,301.906 919.626,380.147 C830.385,464.125 700.602,489.377 602.673,494.807 C579.385,498.764 550.402,512.696 522.475,526.384 C524.696,532.156 527.653,536.273 531.358,537.813 C561.985,522.93 594.783,506.469 620.563,502.131 C718.848,496.764 849.121,471.628 938.89,387.73 C1030.021,302.581 1013.088,201.762 924.767,175.872" fill="#005E9E"/>
    <path d="M531.358,542.034 C530.807,542.034 530.267,541.93 529.739,541.715 C513.53,535.01 509.063,497.144 519.346,453.633 C519.555,452.726 520.07,451.922 520.781,451.332 C521.972,450.369 639.729,354.03 709.142,278.083 C716.1,270.899 722.602,264.101 728.836,257.598 C784.616,199.345 818.298,164.185 875.87,164.185 C888.606,164.185 902.275,165.884 917.626,169.381 C960.351,179.093 990.548,205.744 1000.475,242.5 C1013.101,289.243 991.161,344.686 941.773,390.816 C849.723,476.843 716.418,501.125 620.796,506.346 C597.532,510.291 567.47,524.93 538.401,539.084 L533.199,541.611 C532.622,541.893 531.997,542.034 531.358,542.034 z M527.248,456.959 C517.727,498.352 523.42,526.893 531.493,533.047 L534.696,531.488 C564.316,517.07 594.931,502.162 619.864,497.966 C714.553,492.769 845.808,468.94 936.007,384.644 C983.075,340.686 1004.118,288.372 992.327,244.702 C983.234,211.063 955.332,186.608 915.761,177.614 C901.024,174.258 887.969,172.633 875.87,172.633 C821.894,172.633 791.009,204.885 734.934,263.439 C728.701,269.954 722.173,276.764 715.289,283.869 C649.178,356.207 539.506,446.879 527.248,456.959 z M743.045,429.326 C721.326,429.326 704.602,421.755 697.154,408.553 C690.528,396.804 691.841,382.141 700.835,367.251 C701.031,366.938 701.252,366.65 701.523,366.398 L844.839,227.849 C876.766,205.13 905.307,207.223 942.068,232.315 C957.7,247.31 963.394,264.144 959.565,282.807 C948.313,337.545 855.906,395.27 793.88,418.774 C775.389,425.774 758.284,429.326 743.045,429.326 z M707.792,372.085 C700.687,384.08 699.51,395.54 704.517,404.405 C710.418,414.872 724.455,420.878 743.045,420.878 C757.266,420.878 773.364,417.51 790.887,410.872 C849.379,388.711 940.804,332.14 951.295,281.108 C954.547,265.249 949.798,251.42 936.755,238.837 C904.079,216.658 878.238,214.511 850.213,234.333 L707.792,372.085" fill="#1A1919"/>
    <path d="M852.226,254.371 C878.937,235.641 906.337,233.831 943.97,259.494 C949.405,264.739 953.271,270.224 955.982,275.819 C957.209,261.819 952.534,248.217 939.687,235.8 C901.993,210.063 874.521,211.959 847.771,230.886 L704.455,369.435 C695.203,384.748 695.142,398.951 702.491,409.16 C703.388,403.626 705.437,397.773 709.117,391.706 L852.226,254.371" fill="#005E9E"/>
    <path d="M702.491,413.381 C701.154,413.381 699.865,412.743 699.068,411.627 C690.418,399.614 691.056,383.435 700.835,367.251 C701.031,366.938 701.252,366.65 701.523,366.398 L844.839,227.849 C876.766,205.13 905.307,207.223 942.068,232.315 C955.7,245.401 961.602,260.009 960.191,276.187 C960.019,278.083 958.62,279.629 956.743,279.973 C954.891,280.329 953.013,279.372 952.179,277.66 C949.504,272.132 945.859,267.181 941.037,262.531 C908.411,240.419 882.619,238.192 854.654,257.831 L712.442,394.362 C709.449,399.417 707.51,404.62 706.663,409.835 C706.381,411.522 705.13,412.878 703.461,413.271 C703.142,413.344 702.81,413.381 702.491,413.381 z M707.792,372.079 C702.553,380.932 700.528,389.386 701.768,396.755 C702.81,394.313 704.063,391.896 705.51,389.515 C705.694,389.203 705.928,388.914 706.197,388.656 L849.305,251.322 C881.22,228.818 909.662,230.99 946.351,256.003 C947.749,257.334 949.05,258.666 950.265,260.015 C948.019,252.444 943.504,245.358 936.755,238.837 C904.079,216.658 878.238,214.511 850.213,234.333 L707.792,372.079" fill="#1A1919"/>
    <path d="M420.822,454.738 C414.718,454.738 408.417,454.075 402.104,452.769 C399.871,452.303 398.411,450.148 398.803,447.903 C403.822,419.375 407.54,355.821 389.644,298.532 C368.612,231.217 387.251,117.079 463.222,38.139 C486.498,13.954 520.082,0.641 557.764,0.641 C606.992,0.641 651.484,23.77 668.491,58.201 C679.117,79.685 684.221,115.165 648.245,162.191 C637.827,183.67 615.704,220.303 594.305,255.733 C567.544,300.053 539.887,345.852 534.193,363.312 C537.187,376.54 531.285,398.503 521.125,411.246 C516.978,416.442 513.727,418.172 509.972,420.179 C504.192,423.258 496.277,427.473 477.327,448.492 C475.781,450.21 473.167,450.375 471.418,448.848 C470.719,448.24 468.253,445.682 467.946,439.646 C458.866,446.283 442.957,454.738 420.822,454.738 z M407.803,445.229 C412.202,445.934 416.57,446.296 420.822,446.296 C452.676,446.296 470.253,426.51 470.431,426.308 C471.725,424.81 473.879,424.418 475.627,425.369 C477.363,426.308 478.216,428.332 477.676,430.234 C476.879,433.044 476.517,435.283 476.394,437.044 C492.67,419.829 500.585,415.608 505.996,412.725 C509.407,410.909 511.469,409.81 514.523,405.976 C523.248,395.025 528.708,374.791 525.751,364.343 C525.53,363.582 525.543,362.772 525.764,362.012 C530.917,344.367 558.193,299.194 587.078,251.365 C608.379,216.094 630.404,179.621 641.104,157.767 C667.927,122.564 674.626,89.674 660.92,61.943 C645.3,30.329 603.852,9.083 557.764,9.083 C522.401,9.083 490.977,21.482 469.308,43.992 C395.588,120.595 377.398,231.015 397.705,296.016 C415.264,352.22 412.57,414.271 407.803,445.229 z M464.467,283.74 C448.786,283.74 436.056,278.586 427.65,268.832 C417.491,257.052 414.104,239.278 417.57,216.014 C430.147,131.632 474.695,69.655 533.825,54.268 C541.984,52.145 550.193,51.071 558.23,51.071 C590.047,51.071 612.551,67.256 619.986,82.293 C624.011,90.428 623.717,98.508 619.19,104.453 C595.544,139.65 574.771,173.406 558.083,200.535 C541.138,228.07 527.764,249.819 518.229,262.015 C508.72,274.2 485.105,283.74 464.467,283.74 z M558.23,59.513 C550.917,59.513 543.42,60.501 535.96,62.44 C480.154,76.956 437.994,136.282 425.927,217.26 C422.834,237.984 425.565,253.481 434.049,263.322 C442.577,273.218 455.302,275.298 464.467,275.298 C484.652,275.298 504.634,265.703 511.579,256.813 C520.818,244.99 534.083,223.419 550.893,196.112 C567.617,168.921 588.44,135.08 612.317,99.533 C615.913,94.815 613.913,89.06 612.416,86.036 C605.9,72.857 585.188,59.513 558.23,59.513" fill="#1A1919"/>
    <path d="M960.498,224.296 C984.523,260.322 977.823,329.723 837.722,417.792 C951.16,383.104 1017.861,277.672 960.498,224.296" fill="#FFFFFF"/>
    <path d="M576.17,32.139 C634.87,49.482 676.233,76.183 584.17,213.622 C713.596,85.52 638.894,22.795 576.17,32.139" fill="#FFFFFF"/>
    <path d="M418.706,607.287 C317.292,820.803 223.866,952.91 203.853,974.266 C265.254,928.891 405.343,675.351 418.706,607.287" fill="#FFFFFF"/>
  </g>
</svg>
